# xmcd
#
# Track frame offsets:
#	150
#	16976
#	38856
#	53631
#	65932
#	78145
#	89889
#	102008
#	113512
#	128598
#	147737
#	161106
#	173616
#	186488
#	201030
#	215246
#	226105
#	235520
#	248986
#	260716
#
# Disc length: 3694 seconds
#
# Revision: 1
# Processed by: cddbd v1.5.2PL0 Copyright (c) Steve Scherf et al.
# Submitted via: audiograbber 1.83.01
#
DISCID=1d0e6c14
DTITLE=Funny Van Dannen - Meine vielleicht besten Lieder...Live
DYEAR=2010
DGENRE=Vocal
TTITLE0=Ich bin nicht mehr jung
TTITLE1=Schilddrüsenunterfunktion
TTITLE2=Nonne werden
TTITLE3=Humankapital
TTITLE4=Saharasand
TTITLE5=Anita
TTITLE6=Arbeitsplatz vernichtet
TTITLE7=Lesbische, scharze Behinderte
TTITLE8=Eurythmieschuhe
TTITLE9=Posex and Poesie
TTITLE10=Homebanking
TTITLE11=Als Willy Brandt Bundeskanzler war
TTITLE12=Nana Mouskouri
TTITLE13=Gwendolyn Kucharski
TTITLE14=Plastikball
TTITLE15=Saufen
TTITLE16=Alles verkauft
TTITLE17=Sozialismus
TTITLE18=Menschenverachtende Untergrundmusik
TTITLE19=Nebelmaschine
EXTD=
EXTT0=
EXTT1=
EXTT2=
EXTT3=
EXTT4=
EXTT5=
EXTT6=
EXTT7=
EXTT8=
EXTT9=
EXTT10=
EXTT11=
EXTT12=
EXTT13=
EXTT14=
EXTT15=
EXTT16=
EXTT17=
EXTT18=
EXTT19=
PLAYORDER=
